<svg width="157" height="117" viewBox="0 0 157 117" fill="none" xmlns="http://www.w3.org/2000/svg">
<path d="M57.8861 35.6026C68.0565 35.6026 76.6715 42.235 79.6201 51.3968L74.964 56.7987L68.6649 49.3301L66.6355 51.6844L66.6432 51.6933L59.096 60.4479L54.6073 55.1255L54.6131 55.1191L52.6091 52.7425L39.6232 67.8074L41.6278 70.1833L52.5773 57.4798L59.0705 65.1795L68.6471 54.0692L74.9245 61.5125L74.9602 61.4699L74.9754 61.4877L80.476 55.1058C80.628 56.1663 80.7084 57.2502 80.7084 58.3526C80.7084 70.917 70.4905 81.1026 57.8861 81.1026C45.2818 81.1025 35.0639 70.917 35.0639 58.3526C35.064 45.7883 45.2819 35.6027 57.8861 35.6026ZM89.1247 49.8537L86.5668 48.0402L80.476 55.1058C80.2934 53.8323 80.0051 52.5931 79.6201 51.3968L84.0515 46.2572L81.8737 44.7128L91.1414 39.5026L89.1247 49.8537Z" fill="url(#paint0_linear_1_904)"/>
<path d="M97.3097 88.9084C93.1356 94.1598 87.9398 98.5163 82.0346 101.716C76.1293 104.916 69.636 106.893 62.9452 107.529C56.2544 108.164 49.5038 107.445 43.0986 105.415C36.6933 103.385 30.7653 100.086 25.6712 95.7156L37.7483 81.7279C40.9518 84.4765 44.68 86.5514 48.708 87.828C52.7359 89.1045 56.9814 89.5564 61.1889 89.1566C65.3965 88.7568 69.4794 87.5131 73.1929 85.501C76.9064 83.4888 80.1738 80.7494 82.7987 77.4471L97.3097 88.9084Z" fill="url(#paint1_linear_1_904)"/>
<path d="M44.6784 29.8182C40.0815 32.0096 36.0892 35.2844 33.047 39.3593C30.0049 43.4341 28.0045 48.1862 27.2185 53.2048C26.4326 58.2235 26.8851 63.3578 28.5367 68.163C30.1882 72.9682 32.9888 77.3003 36.697 80.784L24.6306 94.7527C18.7339 89.2128 13.6483 81.7856 11.022 74.1444C8.39573 66.5032 7.67659 58.3391 8.92635 50.3585C10.1761 42.3779 13.3571 34.8209 18.1947 28.3411C23.0323 21.8613 29.3807 16.6538 36.6907 13.1689L44.6784 29.8182Z" fill="url(#paint2_linear_1_904)"/>
<path d="M37.998 12.5278C47.7123 8.41771 59.2087 7.21203 69.4887 9.59012C79.7688 11.9683 89.0274 17.5354 95.933 25.4903L81.9333 37.5667C77.5908 32.5643 71.7683 29.0635 65.3038 27.5679C58.8391 26.0724 52.0648 26.659 45.9558 29.2437L37.998 12.5278Z" fill="url(#paint3_linear_1_904)"/>
<path d="M103.919 95.7715C95.1965 106.29 83.0599 113.437 69.6092 115.978C56.1585 118.518 42.2401 116.29 30.2629 109.681L31.6841 107.122C43.0624 113.401 56.2848 115.517 69.063 113.104C81.8412 110.691 93.371 103.9 101.657 93.9079L103.919 95.7715Z" fill="url(#paint4_linear_1_904)"/>
<path d="M22.646 12.3309C34.1034 3.44373 48.4587 -0.894722 62.9381 0.153861C77.4174 1.20244 90.9929 7.56363 101.041 18.0082L98.9237 20.0328C89.3775 10.1104 76.4808 4.06732 62.7254 3.07117C48.9701 2.07501 35.3325 6.19654 24.448 14.6393L22.646 12.3309Z" fill="url(#paint5_linear_1_904)"/>
<path d="M24.3431 105.937C17.5644 101.061 11.9091 94.7968 7.75573 87.565C3.60238 80.3332 1.04689 72.3003 0.260348 64.0042C-0.526194 55.7081 0.474372 47.3402 3.19505 39.4608C5.91573 31.5814 10.2937 24.3723 16.0359 18.3162L18.1684 20.3254C12.7133 26.0787 8.55424 32.9273 5.96959 40.4127C3.38494 47.8982 2.43441 55.8477 3.18162 63.729C3.92883 71.6103 6.35655 79.2415 10.3022 86.1117C14.2479 92.9819 19.6205 98.9326 26.0603 103.565L24.3431 105.937Z" fill="url(#paint6_linear_1_904)"/>
<path d="M102.227 18.378C102.227 19.9934 100.913 21.303 99.2923 21.303C97.6718 21.303 96.358 19.9934 96.358 18.378C96.358 16.7625 97.6718 15.453 99.2923 15.453C100.913 15.453 102.227 16.7625 102.227 18.378Z" fill="url(#paint7_linear_1_904)"/>
<path d="M104.183 96.3778C104.183 97.9933 102.869 99.3028 101.249 99.3028C99.6279 99.3028 98.3142 97.9933 98.3142 96.3778C98.3142 94.7624 99.6279 93.4528 101.249 93.4528C102.869 93.4528 104.183 94.7624 104.183 96.3778Z" fill="url(#paint8_linear_1_904)"/>
<path d="M27.2392 13.178C27.2392 14.7934 25.9255 16.103 24.3049 16.103C22.6844 16.103 21.3706 14.7934 21.3706 13.178C21.3706 11.5625 22.6844 10.253 24.3049 10.253C25.9255 10.253 27.2392 11.5625 27.2392 13.178Z" fill="url(#paint9_linear_1_904)"/>
<path d="M19.4145 20.328C19.4145 21.9434 18.1007 23.253 16.4802 23.253C14.8596 23.253 13.5459 21.9434 13.5459 20.328C13.5459 18.7125 14.8596 17.403 16.4802 17.403C18.1007 17.403 19.4145 18.7125 19.4145 20.328Z" fill="url(#paint10_linear_1_904)"/>
<path d="M27.8913 104.828C27.8913 106.443 26.5776 107.753 24.957 107.753C23.3364 107.753 22.0227 106.443 22.0227 104.828C22.0227 103.212 23.3364 101.903 24.957 101.903C26.5776 101.903 27.8913 103.212 27.8913 104.828Z" fill="url(#paint11_linear_1_904)"/>
<path d="M35.7161 109.378C35.7161 110.993 34.4023 112.303 32.7818 112.303C31.1612 112.303 29.8475 110.993 29.8475 109.378C29.8475 107.762 31.1612 106.453 32.7818 106.453C34.4023 106.453 35.7161 107.762 35.7161 109.378Z" fill="url(#paint12_linear_1_904)"/>
<path d="M123.093 49.9029H106.791V79.1528H97.0101V40.1529H123.093V49.9029Z" fill="url(#paint13_linear_1_904)"/>
<path d="M137.438 55.7529H147.219V40.1529H157V79.1528H147.219V65.5029H137.438V79.1528H127.657V40.1529H137.438V55.7529Z" fill="url(#paint14_linear_1_904)"/>
<defs>
<linearGradient id="paint0_linear_1_904" x1="15.828" y1="11.2588" x2="109.7" y2="123.677" gradientUnits="userSpaceOnUse">
<stop stop-color="#0CBFA1"/>
<stop offset="0.63" stop-color="#148C9C"/>
<stop offset="1" stop-color="#09707C"/>
</linearGradient>
<linearGradient id="paint1_linear_1_904" x1="15.828" y1="11.2588" x2="109.7" y2="123.677" gradientUnits="userSpaceOnUse">
<stop stop-color="#0CBFA1"/>
<stop offset="0.63" stop-color="#148C9C"/>
<stop offset="1" stop-color="#09707C"/>
</linearGradient>
<linearGradient id="paint2_linear_1_904" x1="15.828" y1="11.2588" x2="109.7" y2="123.677" gradientUnits="userSpaceOnUse">
<stop stop-color="#0CBFA1"/>
<stop offset="0.63" stop-color="#148C9C"/>
<stop offset="1" stop-color="#09707C"/>
</linearGradient>
<linearGradient id="paint3_linear_1_904" x1="15.828" y1="11.2588" x2="109.7" y2="123.677" gradientUnits="userSpaceOnUse">
<stop stop-color="#0CBFA1"/>
<stop offset="0.63" stop-color="#148C9C"/>
<stop offset="1" stop-color="#09707C"/>
</linearGradient>
<linearGradient id="paint4_linear_1_904" x1="15.828" y1="11.2588" x2="109.7" y2="123.677" gradientUnits="userSpaceOnUse">
<stop stop-color="#0CBFA1"/>
<stop offset="0.63" stop-color="#148C9C"/>
<stop offset="1" stop-color="#09707C"/>
</linearGradient>
<linearGradient id="paint5_linear_1_904" x1="15.828" y1="11.2588" x2="109.7" y2="123.677" gradientUnits="userSpaceOnUse">
<stop stop-color="#0CBFA1"/>
<stop offset="0.63" stop-color="#148C9C"/>
<stop offset="1" stop-color="#09707C"/>
</linearGradient>
<linearGradient id="paint6_linear_1_904" x1="15.828" y1="11.2588" x2="109.7" y2="123.677" gradientUnits="userSpaceOnUse">
<stop stop-color="#0CBFA1"/>
<stop offset="0.63" stop-color="#148C9C"/>
<stop offset="1" stop-color="#09707C"/>
</linearGradient>
<linearGradient id="paint7_linear_1_904" x1="15.828" y1="11.2588" x2="109.7" y2="123.677" gradientUnits="userSpaceOnUse">
<stop stop-color="#0CBFA1"/>
<stop offset="0.63" stop-color="#148C9C"/>
<stop offset="1" stop-color="#09707C"/>
</linearGradient>
<linearGradient id="paint8_linear_1_904" x1="15.828" y1="11.2588" x2="109.7" y2="123.677" gradientUnits="userSpaceOnUse">
<stop stop-color="#0CBFA1"/>
<stop offset="0.63" stop-color="#148C9C"/>
<stop offset="1" stop-color="#09707C"/>
</linearGradient>
<linearGradient id="paint9_linear_1_904" x1="15.828" y1="11.2588" x2="109.7" y2="123.677" gradientUnits="userSpaceOnUse">
<stop stop-color="#0CBFA1"/>
<stop offset="0.63" stop-color="#148C9C"/>
<stop offset="1" stop-color="#09707C"/>
</linearGradient>
<linearGradient id="paint10_linear_1_904" x1="15.828" y1="11.2588" x2="109.7" y2="123.677" gradientUnits="userSpaceOnUse">
<stop stop-color="#0CBFA1"/>
<stop offset="0.63" stop-color="#148C9C"/>
<stop offset="1" stop-color="#09707C"/>
</linearGradient>
<linearGradient id="paint11_linear_1_904" x1="15.828" y1="11.2588" x2="109.7" y2="123.677" gradientUnits="userSpaceOnUse">
<stop stop-color="#0CBFA1"/>
<stop offset="0.63" stop-color="#148C9C"/>
<stop offset="1" stop-color="#09707C"/>
</linearGradient>
<linearGradient id="paint12_linear_1_904" x1="15.828" y1="11.2588" x2="109.7" y2="123.677" gradientUnits="userSpaceOnUse">
<stop stop-color="#0CBFA1"/>
<stop offset="0.63" stop-color="#148C9C"/>
<stop offset="1" stop-color="#09707C"/>
</linearGradient>
<linearGradient id="paint13_linear_1_904" x1="15.828" y1="11.2588" x2="109.7" y2="123.677" gradientUnits="userSpaceOnUse">
<stop stop-color="#0CBFA1"/>
<stop offset="0.63" stop-color="#148C9C"/>
<stop offset="1" stop-color="#09707C"/>
</linearGradient>
<linearGradient id="paint14_linear_1_904" x1="15.828" y1="11.2588" x2="109.7" y2="123.677" gradientUnits="userSpaceOnUse">
<stop stop-color="#0CBFA1"/>
<stop offset="0.63" stop-color="#148C9C"/>
<stop offset="1" stop-color="#09707C"/>
</linearGradient>
</defs>
</svg>
